<svg xmlns="http://www.w3.org/2000/svg" viewBox="0 0 32 32">
  <rect width="32" height="32" rx="5" fill="#05030e"/>
  <!-- Stars -->
  <circle cx="4"  cy="5"  r="0.7" fill="white" opacity="0.9"/>
  <circle cx="11" cy="3"  r="0.5" fill="white" opacity="0.7"/>
  <circle cx="20" cy="2"  r="0.6" fill="white" opacity="0.8"/>
  <circle cx="27" cy="6"  r="0.5" fill="white" opacity="0.6"/>
  <circle cx="29" cy="3"  r="0.7" fill="white" opacity="0.9"/>
  <circle cx="2"  cy="14" r="0.5" fill="white" opacity="0.6"/>
  <circle cx="7"  cy="9"  r="0.6" fill="white" opacity="0.75"/>
  <circle cx="15" cy="7"  r="0.5" fill="white" opacity="0.65"/>
  <circle cx="24" cy="9"  r="0.6" fill="white" opacity="0.8"/>
  <circle cx="30" cy="11" r="0.5" fill="white" opacity="0.55"/>
  <circle cx="6"  cy="18" r="0.5" fill="white" opacity="0.5"/>
  <circle cx="26" cy="15" r="0.6" fill="white" opacity="0.7"/>
  <circle cx="3"  cy="24" r="0.5" fill="white" opacity="0.6"/>
  <circle cx="29" cy="22" r="0.6" fill="white" opacity="0.75"/>
  <circle cx="13" cy="4"  r="0.4" fill="white" opacity="0.5"/>
  <circle cx="22" cy="5"  r="0.4" fill="white" opacity="0.6"/>
  <!-- Faint nebula glow -->
  <ellipse cx="16" cy="14" rx="10" ry="6" fill="url(#ng)" opacity="0.18"/>
  <defs>
    <radialGradient id="ng" cx="50%" cy="50%" r="50%">
      <stop offset="0%" stop-color="#7c5cbf"/>
      <stop offset="100%" stop-color="#05030e" stop-opacity="0"/>
    </radialGradient>
  </defs>
  <!-- VT text -->
  <text x="16" y="26" font-family="'Space Grotesk', Georgia, serif" font-size="13"
        font-weight="700" fill="white" text-anchor="middle" letter-spacing="-0.5"
        opacity="0.95">VT</text>
</svg>
